<mxfile host="app.diagrams.net" modified="2022-03-18T08:22:23.423Z" agent="5.0 (Windows)" etag="kpF-NiqtxSyyPZGx9ox-" version="17.1.3" type="github">
  <diagram id="huIT8yfWPjrIG61Vbd0z" name="Page-1">
    <mxGraphModel dx="1093" dy="1694" grid="1" gridSize="10" guides="1" tooltips="1" connect="1" arrows="1" fold="1" page="1" pageScale="1" pageWidth="850" pageHeight="1100" math="0" shadow="0">
      <root>
        <mxCell id="0" />
        <mxCell id="1" parent="0" />
        <mxCell id="Aync5TACeiiqdFRISOnV-7" value="" style="triangle;whiteSpace=wrap;html=1;fillColor=#fff2cc;dashed=1;rotation=-92.3;strokeColor=none;opacity=35;" parent="1" vertex="1">
          <mxGeometry x="304.79" y="-520" width="111.13" height="347.02" as="geometry" />
        </mxCell>
        <mxCell id="Fn60unkbMZBintz-3KZK-5" value="" style="triangle;whiteSpace=wrap;html=1;fillColor=none;dashed=1;rotation=-92.3;" parent="1" vertex="1">
          <mxGeometry x="304.79" y="-520" width="111.13" height="347.02" as="geometry" />
        </mxCell>
        <mxCell id="Fn60unkbMZBintz-3KZK-12" value="" style="ellipse;whiteSpace=wrap;html=1;fontSize=8;fillColor=default;strokeColor=none;" parent="1" vertex="1">
          <mxGeometry x="125" y="-320" width="600" height="140" as="geometry" />
        </mxCell>
        <mxCell id="Fn60unkbMZBintz-3KZK-2" value="" style="fontColor=#0066CC;verticalAlign=top;verticalLabelPosition=bottom;labelPosition=center;align=center;html=1;outlineConnect=0;fillColor=#CCCCCC;strokeColor=#000000;gradientColor=none;gradientDirection=north;strokeWidth=2;shape=mxgraph.networks.satellite;rotation=-90;" parent="1" vertex="1">
          <mxGeometry x="348" y="-420" width="20" height="20" as="geometry" />
        </mxCell>
        <mxCell id="Fn60unkbMZBintz-3KZK-3" value="" style="shape=image;html=1;verticalAlign=top;verticalLabelPosition=bottom;labelBackgroundColor=#ffffff;imageAspect=0;aspect=fixed;image=https://cdn4.iconfinder.com/data/icons/game-of-thrones-4/64/game_of_thrones_game_thrones_series_element_fire_flame_heat-128.png;rotation=-5;" parent="1" vertex="1">
          <mxGeometry x="330" y="-340" width="28" height="28" as="geometry" />
        </mxCell>
        <mxCell id="Fn60unkbMZBintz-3KZK-4" value="" style="shape=mxgraph.cisco.wireless.ground_terminal;html=1;pointerEvents=1;dashed=0;fillColor=#2E2A2A;strokeColor=#ffffff;strokeWidth=2;verticalLabelPosition=bottom;verticalAlign=top;align=center;outlineConnect=0;rotation=-85.4;direction=south;" parent="1" vertex="1">
          <mxGeometry x="540.3" y="-335" width="29.39" height="20" as="geometry" />
        </mxCell>
        <mxCell id="Fn60unkbMZBintz-3KZK-9" value="&lt;font style=&quot;font-size: 12px&quot;&gt;Fire&lt;/font&gt;" style="text;html=1;strokeColor=none;fillColor=none;align=center;verticalAlign=middle;whiteSpace=wrap;rounded=0;" parent="1" vertex="1">
          <mxGeometry x="285" y="-340" width="60" height="30" as="geometry" />
        </mxCell>
        <mxCell id="Fn60unkbMZBintz-3KZK-10" value="" style="endArrow=none;html=1;fontSize=8;curved=1;exitX=0.106;exitY=0.172;exitDx=0;exitDy=0;exitPerimeter=0;entryX=0.895;entryY=0.167;entryDx=0;entryDy=0;entryPerimeter=0;" parent="1" source="Fn60unkbMZBintz-3KZK-12" target="Fn60unkbMZBintz-3KZK-12" edge="1">
          <mxGeometry width="50" height="50" relative="1" as="geometry">
            <mxPoint x="265" y="-293.46" as="sourcePoint" />
            <mxPoint x="585" y="-293.46" as="targetPoint" />
            <Array as="points">
              <mxPoint x="425" y="-340" />
            </Array>
          </mxGeometry>
        </mxCell>
        <mxCell id="Fn60unkbMZBintz-3KZK-13" value="&lt;font style=&quot;font-size: 12px&quot;&gt;Ground&lt;br&gt;station&lt;/font&gt;" style="text;html=1;strokeColor=none;fillColor=none;align=center;verticalAlign=middle;whiteSpace=wrap;rounded=0;fontSize=8;" parent="1" vertex="1">
          <mxGeometry x="565" y="-340" width="60" height="30" as="geometry" />
        </mxCell>
        <mxCell id="Fn60unkbMZBintz-3KZK-14" value="&lt;div style=&quot;font-size: 12px&quot;&gt;&lt;font style=&quot;font-size: 12px&quot;&gt;LEO&lt;/font&gt;&lt;/div&gt;&lt;div style=&quot;font-size: 12px&quot;&gt;&lt;font style=&quot;font-size: 12px&quot;&gt;satellite&lt;br&gt;&lt;/font&gt;&lt;/div&gt;" style="text;html=1;strokeColor=none;fillColor=none;align=center;verticalAlign=middle;whiteSpace=wrap;rounded=0;fontSize=8;" parent="1" vertex="1">
          <mxGeometry x="375" y="-428" width="60" height="30" as="geometry" />
        </mxCell>
        <mxCell id="Aync5TACeiiqdFRISOnV-1" value="" style="fontColor=#0066CC;verticalAlign=top;verticalLabelPosition=bottom;labelPosition=center;align=center;html=1;outlineConnect=0;fillColor=#CCCCCC;strokeColor=#000000;gradientColor=none;gradientDirection=north;strokeWidth=2;shape=mxgraph.networks.satellite;rotation=-30;" parent="1" vertex="1">
          <mxGeometry x="545" y="-560" width="20" height="20" as="geometry" />
        </mxCell>
        <mxCell id="Aync5TACeiiqdFRISOnV-4" value="&lt;div style=&quot;font-size: 12px&quot;&gt;&lt;font style=&quot;font-size: 12px&quot;&gt;GEO&lt;br&gt;&lt;/font&gt;&lt;/div&gt;&lt;div style=&quot;font-size: 12px&quot;&gt;&lt;font style=&quot;font-size: 12px&quot;&gt;relay satellite&lt;br&gt;&lt;/font&gt;&lt;/div&gt;" style="text;html=1;strokeColor=none;fillColor=none;align=center;verticalAlign=middle;whiteSpace=wrap;rounded=0;fontSize=8;" parent="1" vertex="1">
          <mxGeometry x="565" y="-545" width="70" height="30" as="geometry" />
        </mxCell>
        <mxCell id="Aync5TACeiiqdFRISOnV-5" value="" style="endArrow=none;dashed=1;html=1;rounded=0;entryX=0.07;entryY=0.93;entryDx=0;entryDy=0;entryPerimeter=0;jumpStyle=none;dashPattern=1 2;endFill=0;startArrow=diamondThin;startFill=1;" parent="1" target="Aync5TACeiiqdFRISOnV-1" edge="1">
          <mxGeometry width="50" height="50" relative="1" as="geometry">
            <mxPoint x="372" y="-421" as="sourcePoint" />
            <mxPoint x="485" y="-450" as="targetPoint" />
          </mxGeometry>
        </mxCell>
        <mxCell id="Aync5TACeiiqdFRISOnV-6" value="" style="endArrow=none;dashed=1;html=1;rounded=0;entryX=0.07;entryY=0.93;entryDx=0;entryDy=0;entryPerimeter=0;dashPattern=1 2;startArrow=diamondThin;startFill=1;" parent="1" target="Aync5TACeiiqdFRISOnV-1" edge="1">
          <mxGeometry width="50" height="50" relative="1" as="geometry">
            <mxPoint x="555" y="-340" as="sourcePoint" />
            <mxPoint x="485" y="-450" as="targetPoint" />
          </mxGeometry>
        </mxCell>
      </root>
    </mxGraphModel>
  </diagram>
</mxfile>
